<?xml version="1.0" encoding="UTF-8" standalone="no"?>
<!-- Created with Inkscape (http://www.inkscape.org/) -->

<svg
   xmlns:dc="http://purl.org/dc/elements/1.1/"
   xmlns:cc="http://creativecommons.org/ns#"
   xmlns:rdf="http://www.w3.org/1999/02/22-rdf-syntax-ns#"
   xmlns:svg="http://www.w3.org/2000/svg"
   xmlns="http://www.w3.org/2000/svg"
   xmlns:sodipodi="http://sodipodi.sourceforge.net/DTD/sodipodi-0.dtd"
   xmlns:inkscape="http://www.inkscape.org/namespaces/inkscape"
   id="svg2"
   version="1.1"
   inkscape:version="0.91 r13725"
   width="1625"
   height="1625"
   viewBox="0 0 1625 1625"
   sodipodi:docname="flower2_cutter.svg">
  <metadata
     id="metadata8">
    <rdf:RDF>
      <cc:Work
         rdf:about="">
        <dc:format>image/svg+xml</dc:format>
        <dc:type
           rdf:resource="http://purl.org/dc/dcmitype/StillImage" />
        <dc:title></dc:title>
      </cc:Work>
    </rdf:RDF>
  </metadata>
  <defs
     id="defs6" />
  <sodipodi:namedview
     pagecolor="#ffffff"
     bordercolor="#666666"
     borderopacity="1"
     objecttolerance="10"
     gridtolerance="10"
     guidetolerance="10"
     inkscape:pageopacity="0"
     inkscape:pageshadow="2"
     inkscape:window-width="1920"
     inkscape:window-height="1004"
     id="namedview4"
     showgrid="false"
     inkscape:zoom="0.58092308"
     inkscape:cx="881.14156"
     inkscape:cy="962.49825"
     inkscape:window-x="0"
     inkscape:window-y="24"
     inkscape:window-maximized="1"
     inkscape:current-layer="svg2" />
  <path
     style="fill:none;fill-rule:evenodd;stroke:#000000;stroke-width:1px;stroke-linecap:butt;stroke-linejoin:miter;stroke-opacity:1"
     d="m 540.51907,420.02119 c 63.73957,10.50705 129.02812,6.1905 191.92556,-7.55159 31.73381,-7.14121 64.89201,-11.14753 93.47467,-27.83839 24.18183,-12.63776 49.48487,-23.06643 72.06698,-38.60237 14.16742,-8.28021 31.89768,-10.41256 42.63648,-24.23666 11.78801,-12.1203 22.72681,-26.8936 40.29569,-30.00085 19.98365,-9.1043 -0.22912,-27.85409 11.12043,-41.02056 2.30442,-17.18268 5.20477,-46.77088 -21.46036,-37.25103 -20.95781,11.17044 -31.48451,-28.829 -47.87466,-6.53982 -7.47422,17.56263 -53.83399,16.05597 -35.53452,-6.8078 17.09189,-9.49454 25.3561,-28.27577 26.15868,-47.08537 1.93946,-12.26224 -14.37766,-10.0662 -21.85806,-14.83667 -8.53554,-3.0484 -17.07107,-6.09681 -25.60661,-9.14521 -12.82772,-24.56226 -42.27705,-2.08393 -61.93454,-10.80049 -12.33204,-4.46556 -26.04337,-28.911145 -34.80893,-7.1599 -6.94725,8.12284 -13.54024,16.56514 -20.31162,24.84598 -27.73755,-0.49471 -59.22035,1.7246 -79.19853,23.58257 -52.67737,43.34986 -94.24556,99.00761 -127.47716,158.22959 -12.10673,22.06957 -13.40268,47.7834 -16.22575,72.25475 0.0321,11.28918 -0.20921,28.17635 14.61225,29.96382 z"
     id="path3338"
     inkscape:connector-curvature="0" />
  <path
     style="fill:none;fill-rule:evenodd;stroke:#000000;stroke-width:1px;stroke-linecap:butt;stroke-linejoin:miter;stroke-opacity:1"
     d="m 503.96186,480.66843 c -24.00256,5.5458 -49.52016,6.10512 -70.1233,-9.29863 -24.19153,7.01785 -37.6143,36.74722 -62.57917,42.58751 -26.86845,-4.03454 0.91668,-42.87548 -24.80836,-45.90294 -23.03741,3.14619 -41.6037,20.00538 -61.63819,30.81046 -51.56044,35.88215 -93.04341,85.44031 -124.17782,139.6853 -8.51465,22.44836 -25.39553,43.15179 -27.18081,66.46503 15.56595,17.23332 47.90172,1.67157 70.48618,5.11739 76.21684,-4.4875 150.4436,-28.37556 216.51199,-66.29699 16.80353,-3.26738 20.91244,-19.11795 26.18025,-32.75453 1.08052,-10.14896 9.62085,-12.50375 18.1436,-14.87692 6.11845,-4.1762 20.32129,-2.61669 20.25025,-11.18423 0.86393,-7.7763 -1.68011,-17.50178 1.17701,-24.13809 9.36225,-5.50721 18.72451,-11.01441 28.08676,-16.52162 -5.73799,-9.18079 -11.47599,-18.36158 -17.21398,-27.54237 4.5904,-8.60699 9.18079,-17.21399 13.77119,-25.82098 -2.2952,-3.4428 -4.5904,-6.88559 -6.8856,-10.32839 z"
     id="path3343"
     inkscape:connector-curvature="0" />
  <path
     style="fill:none;fill-rule:evenodd;stroke:#000000;stroke-width:1px;stroke-linecap:butt;stroke-linejoin:miter;stroke-opacity:1"
     d="m 559.45445,661.01695 c -1.7214,-8.60699 -3.4428,-17.21399 -5.1642,-25.82098 17.5011,-28.33023 40.94909,-52.17532 65.60034,-74.24511 18.11139,-18.92997 39.71655,-34.26155 63.85313,-44.47721 19.84214,-9.6712 38.92937,-21.75127 59.40908,-29.59903 23.11573,-2.2015 46.23147,-4.40299 69.3472,-6.60449 12.62359,6.88559 25.24717,13.77119 37.87076,20.65678 3.20642,19.92243 -30.9807,18.12393 -26.82077,37.04755 12.06678,13.70315 40.82984,-16.2953 43.73252,12.30788 -8.41618,13.26085 -3.39924,33.15799 -16.72198,43.69701 -17.82994,7.44746 -17.60782,33.4321 -38.3143,37.62554 -51.93732,23.61937 -106.93905,48.89991 -165.51802,43.98705 -29.59142,-1.23705 -58.48494,-8.19596 -87.27376,-14.57499 z"
     id="path3352"
     inkscape:connector-curvature="0" />
  <path
     style="fill:none;fill-rule:evenodd;stroke:#000000;stroke-width:1px;stroke-linecap:butt;stroke-linejoin:miter;stroke-opacity:1"
     d="m 1093.0879,370.10063 c 14.8841,10.26732 6.5804,54.57308 34.7503,38.03646 14.3063,-10.39058 33.7727,-42.34717 52.3239,-25.12342 1.5888,12.97023 4.9827,31.96056 22.4072,21.24098 20.4056,-10.93223 42.2822,-8.4705 58.1175,7.84947 20.0876,13.0445 39.3342,-14.42284 57.4926,-3.51575 18.3,15.98166 -5.3548,34.6353 -3.9227,53.01265 -0.6231,14.92509 33.0619,18.26031 12.0346,32.73652 -20.6026,11.96509 -13.2743,36.37357 -16.6876,55.30698 -6.957,17.40133 -37.9084,7.16721 -39.7001,26.73208 0.4081,19.45454 -1.2611,42.57396 -15.905,57.15487 -18.7263,15.13322 -43.4893,18.26301 -64.8878,28.15106 -26.2912,8.53591 -54.297,4.08084 -81.3969,6.83056 -25.8064,0.91531 -52.2257,2.18507 -76.9235,-6.74285 -34.44524,-9.31537 -69.8085,-18.62629 -100.3078,-37.73986 -19.06993,-16.9295 -11.41412,-44.59431 -8.48085,-66.55686 5.26988,-25.23944 18.10314,-48.02949 29.35619,-70.92812 16.91104,-25.05893 38.31729,-46.83823 59.88276,-67.8908 20.7582,-18.85644 42.679,-39.51039 70.4393,-46.80759 3.793,-0.64628 7.6258,-1.0323 11.4079,-1.74638 z"
     id="path3364"
     inkscape:connector-curvature="0" />
</svg>
